<?xml version="1.0" encoding="UTF-8" standalone="no"?>
<!-- Created with Inkscape (http://www.inkscape.org/) -->

<svg
   xmlns:dc="http://purl.org/dc/elements/1.1/"
   xmlns:cc="http://creativecommons.org/ns#"
   xmlns:rdf="http://www.w3.org/1999/02/22-rdf-syntax-ns#"
   xmlns:svg="http://www.w3.org/2000/svg"
   xmlns="http://www.w3.org/2000/svg"
   xmlns:sodipodi="http://sodipodi.sourceforge.net/DTD/sodipodi-0.dtd"
   xmlns:inkscape="http://www.inkscape.org/namespaces/inkscape"
   version="1.1"
   id="svg328"
   xml:space="preserve"
   width="938.66669"
   height="206.66667"
   viewBox="0 0 938.66669 206.66667"
   sodipodi:docname="LIGA_02_notasdedebito.svg"
   inkscape:version="0.92.4 (5da689c313, 2019-01-14)"><metadata
     id="metadata334"><rdf:RDF><cc:Work
         rdf:about=""><dc:format>image/svg+xml</dc:format><dc:type
           rdf:resource="http://purl.org/dc/dcmitype/StillImage" /><dc:title></dc:title></cc:Work></rdf:RDF></metadata><defs
     id="defs332"><clipPath
       clipPathUnits="userSpaceOnUse"
       id="clipPath344"><path
         d="M 0,155 H 704 V 0 H 0 Z"
         id="path342"
         inkscape:connector-curvature="0" /></clipPath></defs><sodipodi:namedview
     pagecolor="#ffffff"
     bordercolor="#666666"
     borderopacity="1"
     objecttolerance="10"
     gridtolerance="10"
     guidetolerance="10"
     inkscape:pageopacity="0"
     inkscape:pageshadow="2"
     inkscape:window-width="640"
     inkscape:window-height="480"
     id="namedview330"
     showgrid="false"
     inkscape:zoom="0.51669033"
     inkscape:cx="469.33334"
     inkscape:cy="103.33334"
     inkscape:window-x="0"
     inkscape:window-y="0"
     inkscape:window-maximized="1"
     inkscape:current-layer="g336" /><g
     id="g336"
     inkscape:groupmode="layer"
     inkscape:label="notasdedebito"
     transform="matrix(1.3333333,0,0,-1.3333333,0,206.66667)"><g
       id="g338"><g
         id="g340"
         clip-path="url(#clipPath344)"><g
           id="g346"
           transform="translate(39.1016,76.4995)"><path
             d="M 0,0 C 0.728,0 1.302,0.229 1.727,0.686 2.15,1.144 2.363,1.739 2.363,2.475 2.363,3.228 2.146,3.842 1.714,4.318 1.281,4.792 0.701,5.031 -0.025,5.031 H -2.284 V 0 Z m -6.102,8.339 h 6.31 C 1.281,8.339 2.198,8.178 2.96,7.854 3.722,7.533 4.35,7.106 4.843,6.577 5.336,6.048 5.7,5.434 5.934,4.735 6.167,4.035 6.284,3.309 6.284,2.555 6.284,1.587 6.124,0.74 5.803,0.013 5.482,-0.713 5.05,-1.318 4.506,-1.802 3.96,-2.287 3.332,-2.654 2.623,-2.905 1.912,-3.157 1.169,-3.282 0.39,-3.282 h -2.674 v -6.322 h -3.818 z"
             style="fill:#373737;fill-opacity:1;fill-rule:nonzero;stroke:none"
             id="path348"
             inkscape:connector-curvature="0" /></g><g
           id="g350"
           transform="translate(54.2129,69.8276)"><path
             d="M 0,0 C 0.468,0 0.883,0.095 1.246,0.283 1.609,0.471 1.917,0.727 2.168,1.05 2.419,1.373 2.605,1.736 2.727,2.14 2.847,2.543 2.908,2.96 2.908,3.39 2.908,3.821 2.847,4.237 2.727,4.641 2.605,5.044 2.419,5.403 2.168,5.716 1.917,6.031 1.609,6.282 1.246,6.47 0.883,6.659 0.468,6.752 0,6.752 -0.468,6.752 -0.887,6.659 -1.259,6.47 -1.632,6.282 -1.938,6.031 -2.181,5.716 -2.424,5.403 -2.609,5.044 -2.739,4.641 -2.869,4.237 -2.935,3.821 -2.935,3.39 c 0,-0.43 0.066,-0.847 0.196,-1.25 0.13,-0.404 0.315,-0.767 0.558,-1.09 C -1.938,0.727 -1.632,0.471 -1.259,0.283 -0.887,0.095 -0.468,0 0,0 m -6.543,3.39 c 0,0.932 0.159,1.806 0.481,2.623 0.32,0.816 0.765,1.529 1.336,2.139 0.572,0.609 1.259,1.089 2.065,1.438 0.805,0.351 1.692,0.525 2.661,0.525 0.97,0 1.853,-0.174 2.648,-0.525 C 3.444,9.241 4.128,8.761 4.7,8.152 5.271,7.542 5.717,6.829 6.037,6.013 6.356,5.196 6.517,4.322 6.517,3.39 6.517,2.457 6.356,1.583 6.037,0.767 5.717,-0.049 5.271,-0.762 4.7,-1.371 4.128,-1.981 3.444,-2.466 2.648,-2.824 1.853,-3.183 0.97,-3.362 0,-3.362 c -0.969,0 -1.856,0.179 -2.661,0.538 -0.806,0.358 -1.493,0.843 -2.065,1.453 -0.571,0.609 -1.016,1.322 -1.336,2.138 -0.322,0.816 -0.481,1.69 -0.481,2.623"
             style="fill:#373737;fill-opacity:1;fill-rule:nonzero;stroke:none"
             id="path352"
             inkscape:connector-curvature="0" /></g><g
           id="g354"
           transform="translate(62.6514,79.5127)"><path
             d="M 0,0 H 3.843 L 5.972,-8.097 8.335,0 H 11.32 L 13.709,-8.097 15.839,0 h 3.765 L 15.423,-12.617 H 12.048 L 9.763,-5.568 7.504,-12.617 H 4.18 Z"
             style="fill:#373737;fill-opacity:1;fill-rule:nonzero;stroke:none"
             id="path356"
             inkscape:connector-curvature="0" /></g><g
           id="g358"
           transform="translate(92.9268,74.5352)"><path
             d="m 0,0 c 0,0.27 -0.052,0.543 -0.156,0.821 -0.105,0.278 -0.26,0.534 -0.468,0.767 -0.207,0.233 -0.467,0.425 -0.778,0.578 -0.312,0.152 -0.684,0.229 -1.117,0.229 -0.433,0 -0.814,-0.077 -1.143,-0.229 C -3.991,2.013 -4.264,1.821 -4.479,1.588 -4.695,1.355 -4.86,1.099 -4.973,0.821 -5.086,0.543 -5.142,0.27 -5.142,0 Z M 3.271,-6.267 C 3.132,-6.357 2.924,-6.505 2.647,-6.711 2.371,-6.917 2.012,-7.119 1.57,-7.316 1.129,-7.514 0.605,-7.688 0,-7.84 c -0.606,-0.153 -1.299,-0.23 -2.077,-0.23 -1.039,0 -1.975,0.167 -2.805,0.498 -0.831,0.332 -1.536,0.794 -2.116,1.385 -0.58,0.593 -1.022,1.305 -1.324,2.139 -0.303,0.834 -0.454,1.753 -0.454,2.757 0,0.879 0.142,1.727 0.427,2.542 0.286,0.817 0.698,1.529 1.234,2.139 0.537,0.61 1.194,1.098 1.973,1.466 0.779,0.368 1.663,0.551 2.649,0.551 0.986,0 1.851,-0.179 2.596,-0.537 C 0.848,4.511 1.475,4.013 1.985,3.377 2.496,2.74 2.882,1.978 3.142,1.09 3.4,0.203 3.53,-0.771 3.53,-1.828 v -0.647 h -8.672 c 0.017,-0.681 0.308,-1.277 0.871,-1.788 0.561,-0.511 1.336,-0.767 2.323,-0.767 0.969,0 1.757,0.148 2.363,0.445 0.606,0.295 1.047,0.55 1.323,0.766 z"
             style="fill:#373737;fill-opacity:1;fill-rule:nonzero;stroke:none"
             id="path360"
             inkscape:connector-curvature="0" /></g><g
           id="g362"
           transform="translate(99.8838,79.5127)"><path
             d="m 0,0 h 3.583 l 0.131,-1.587 c 0.31,0.43 0.739,0.843 1.284,1.237 0.546,0.394 1.25,0.592 2.116,0.592 0.328,0 0.611,-0.018 0.845,-0.054 C 8.191,0.151 8.421,0.089 8.646,0 L 8.049,-3.417 c -0.381,0.125 -0.831,0.188 -1.351,0.188 -0.883,0 -1.595,-0.273 -2.141,-0.82 C 4.012,-4.596 3.739,-5.372 3.739,-6.376 v -6.241 H 0 Z"
             style="fill:#373737;fill-opacity:1;fill-rule:nonzero;stroke:none"
             id="path364"
             inkscape:connector-curvature="0" /></g><g
           id="g366"
           transform="translate(119.4092,74.5352)"><path
             d="M 0,0 C 0,0.27 -0.052,0.543 -0.156,0.821 -0.26,1.099 -0.416,1.355 -0.624,1.588 -0.831,1.821 -1.09,2.013 -1.402,2.166 -1.714,2.318 -2.086,2.395 -2.519,2.395 -2.952,2.395 -3.333,2.318 -3.661,2.166 -3.99,2.013 -4.263,1.821 -4.479,1.588 -4.695,1.355 -4.86,1.099 -4.972,0.821 -5.085,0.543 -5.142,0.27 -5.142,0 Z M 3.271,-6.267 C 3.132,-6.357 2.925,-6.505 2.647,-6.711 2.371,-6.917 2.012,-7.119 1.571,-7.316 1.13,-7.514 0.605,-7.688 0,-7.84 c -0.606,-0.153 -1.299,-0.23 -2.077,-0.23 -1.038,0 -1.974,0.167 -2.805,0.498 -0.83,0.332 -1.536,0.794 -2.115,1.385 -0.581,0.593 -1.023,1.305 -1.324,2.139 -0.304,0.834 -0.455,1.753 -0.455,2.757 0,0.879 0.143,1.727 0.428,2.542 0.285,0.817 0.698,1.529 1.233,2.139 0.537,0.61 1.194,1.098 1.973,1.466 0.78,0.368 1.663,0.551 2.649,0.551 0.987,0 1.852,-0.179 2.597,-0.537 C 0.848,4.511 1.476,4.013 1.986,3.377 2.496,2.74 2.882,1.978 3.142,1.09 3.401,0.203 3.53,-0.771 3.53,-1.828 v -0.647 h -8.672 c 0.018,-0.681 0.308,-1.277 0.871,-1.788 0.562,-0.511 1.336,-0.767 2.324,-0.767 0.968,0 1.756,0.148 2.362,0.445 0.606,0.295 1.047,0.55 1.324,0.766 z"
             style="fill:#373737;fill-opacity:1;fill-rule:nonzero;stroke:none"
             id="path368"
             inkscape:connector-curvature="0" /></g><g
           id="g370"
           transform="translate(134.5723,76.0425)"><path
             d="m 0,0 c -0.26,0.161 -0.541,0.277 -0.844,0.349 -0.303,0.072 -0.678,0.108 -1.129,0.108 -0.953,0 -1.693,-0.332 -2.219,-0.996 -0.53,-0.663 -0.793,-1.515 -0.793,-2.555 0,-0.914 0.216,-1.664 0.649,-2.246 0.432,-0.583 1.082,-0.875 1.947,-0.875 0.416,0 0.775,0.076 1.078,0.23 0.302,0.151 0.553,0.354 0.753,0.605 0.199,0.25 0.341,0.546 0.428,0.888 0.087,0.34 0.13,0.69 0.13,1.049 z m 0.078,-7.882 c -0.381,-0.467 -0.87,-0.856 -1.467,-1.17 -0.597,-0.314 -1.277,-0.471 -2.039,-0.471 -0.744,0 -1.44,0.152 -2.09,0.457 -0.649,0.305 -1.211,0.74 -1.687,1.305 -0.477,0.565 -0.853,1.246 -1.13,2.045 -0.276,0.797 -0.415,1.698 -0.415,2.703 0,1.129 0.194,2.12 0.584,2.972 0.39,0.852 0.892,1.556 1.507,2.112 0.613,0.556 1.297,0.973 2.051,1.251 0.753,0.278 1.492,0.417 2.219,0.417 0.588,0 1.047,-0.04 1.376,-0.121 C -0.684,3.537 -0.346,3.434 0,3.308 V 8.796 H 3.713 V -9.146 h -3.48 z"
             style="fill:#373737;fill-opacity:1;fill-rule:nonzero;stroke:none"
             id="path372"
             inkscape:connector-curvature="0" /></g><g
           id="g374"
           transform="translate(152.0713,69.9624)"><path
             d="m 0,0 c 0.208,-0.09 0.437,-0.157 0.688,-0.201 0.25,-0.046 0.602,-0.068 1.052,-0.068 0.987,0 1.752,0.332 2.298,0.996 C 4.583,1.39 4.855,2.26 4.855,3.335 4.855,3.73 4.808,4.116 4.713,4.492 4.617,4.869 4.475,5.205 4.285,5.501 4.094,5.797 3.847,6.04 3.545,6.228 3.242,6.416 2.873,6.51 2.44,6.51 1.61,6.51 0.996,6.272 0.598,5.797 0.199,5.322 0,4.689 0,3.9 Z M -3.739,14.876 H 0 V 8.608 C 0.346,8.985 0.818,9.281 1.415,9.496 2.013,9.711 2.605,9.819 3.193,9.819 4.06,9.819 4.829,9.648 5.505,9.308 6.18,8.967 6.746,8.505 7.205,7.922 7.664,7.339 8.015,6.667 8.257,5.905 8.499,5.142 8.62,4.331 8.62,3.471 8.62,2.449 8.46,1.506 8.141,0.646 7.82,-0.215 7.356,-0.951 6.751,-1.56 6.145,-2.169 5.401,-2.645 4.518,-2.986 3.635,-3.327 2.632,-3.497 1.507,-3.497 c -1.039,0 -2.022,0.099 -2.947,0.296 -0.927,0.198 -1.693,0.404 -2.299,0.619 z"
             style="fill:#373737;fill-opacity:1;fill-rule:nonzero;stroke:none"
             id="path376"
             inkscape:connector-curvature="0" /></g><g
           id="g378"
           transform="translate(164.2998,64.9058)"><path
             d="m 0,0 c 0.209,-0.162 0.437,-0.305 0.688,-0.431 0.251,-0.125 0.524,-0.188 0.819,-0.188 0.398,0 0.73,0.13 1,0.39 0.267,0.26 0.522,0.705 0.764,1.332 l 0.365,1.022 -5.557,12.482 h 4.259 l 3.037,-7.962 2.753,7.962 h 3.973 L 7.115,2.071 C 6.838,1.371 6.565,0.677 6.297,-0.014 6.028,-0.704 5.7,-1.322 5.311,-1.87 4.921,-2.417 4.444,-2.861 3.882,-3.202 3.32,-3.542 2.614,-3.713 1.767,-3.713 c -0.659,0 -1.256,0.09 -1.792,0.27 -0.537,0.179 -1.031,0.44 -1.48,0.779 z"
             style="fill:#373737;fill-opacity:1;fill-rule:nonzero;stroke:none"
             id="path380"
             inkscape:connector-curvature="0" /></g><g
           id="g382"
           transform="translate(270.3027,63.604)"><path
             d="m 0,0 v 35.938 c 0,0.739 -0.6,1.337 -1.338,1.337 h -8.866 c -0.74,0 -1.341,-0.601 -1.338,-1.341 l 0.135,-46.607 c 0.002,-0.737 0.6,-1.334 1.338,-1.334 h 25.145 c 0.747,0 1.35,0.612 1.338,1.359 l -0.13,8.39 c -0.012,0.73 -0.607,1.317 -1.338,1.317 H 0.941 C 0.421,-0.941 0,-0.52 0,0"
             style="fill:#373737;fill-opacity:1;fill-rule:nonzero;stroke:none"
             id="path384"
             inkscape:connector-curvature="0" /></g><g
           id="g386"
           transform="translate(295.1367,99.5737)"><path
             d="m 0,0 0.135,-46.678 c 0.002,-0.718 0.585,-1.299 1.302,-1.299 h 9.075 c 0.72,0 1.303,0.586 1.301,1.306 L 11.679,0.008 C 11.676,0.725 11.094,1.306 10.376,1.306 H 1.302 C 0.582,1.306 -0.002,0.721 0,0"
             style="fill:#373737;fill-opacity:1;fill-rule:nonzero;stroke:none"
             id="path388"
             inkscape:connector-curvature="0" /></g><g
           id="g390"
           transform="translate(330.083,87.958)"><path
             d="m 0,0 c 0.661,0.964 1.494,1.615 2.543,1.99 2.02,0.72 5.01,0.704 8.735,0.447 1.637,-0.114 3.16,-0.216 4.548,-0.304 1.637,-0.137 3.294,-0.274 4.976,-0.41 0.648,-0.053 1.209,0.447 1.23,1.097 l 0.274,8.107 c 0.018,0.567 -0.383,1.062 -0.943,1.16 -1.825,0.319 -3.676,0.597 -5.485,0.823 -1.599,0.228 -3.361,0.425 -5.241,0.587 -1.888,0.16 -3.662,0.242 -5.275,0.242 -3.393,0 -6.35,-0.472 -8.786,-1.404 -2.503,-0.957 -4.572,-2.479 -6.148,-4.523 -1.548,-2.006 -2.696,-4.619 -3.411,-7.767 -0.697,-3.065 -1.05,-6.794 -1.05,-11.083 0,-4.008 0.316,-7.635 0.941,-10.781 0.64,-3.225 1.741,-6.012 3.272,-8.283 1.563,-2.321 3.656,-4.105 6.22,-5.3 2.526,-1.179 5.657,-1.776 9.303,-1.776 1.287,0 2.759,0.034 4.374,0.103 1.642,0.069 3.252,0.222 4.785,0.454 1.463,0.217 2.695,0.803 3.659,1.741 0.903,0.877 1.631,1.98 2.166,3.277 0.512,1.245 0.881,2.667 1.097,4.228 0.206,1.488 0.359,3.113 0.454,4.886 l 0.053,9.96 c 0.012,2.239 -1.8,4.06 -4.039,4.06 H 8.598 C 6.709,-8.469 5.177,-10 5.177,-11.89 v -3.356 c 0,-1.992 1.615,-3.608 3.608,-3.608 h 0.813 c 0.633,0 1.146,-0.518 1.138,-1.152 l -0.039,-3.291 c -0.069,-1.101 -0.342,-1.84 -0.811,-2.195 -0.306,-0.232 -1.14,-0.62 -3.297,-0.62 -1.794,0 -3.261,0.234 -4.364,0.695 -1.032,0.431 -1.837,1.139 -2.464,2.166 -0.666,1.088 -1.142,2.572 -1.412,4.409 -0.286,1.932 -0.431,4.374 -0.431,7.259 0,2.962 0.177,5.425 0.526,7.321 C -1.224,-2.453 -0.7,-1.02 0,0"
             style="fill:#373737;fill-opacity:1;fill-rule:nonzero;stroke:none"
             id="path392"
             inkscape:connector-curvature="0" /></g><g
           id="g394"
           transform="translate(378.583,88.4385)"><path
             d="M 0,0 C 0.273,1.135 0.627,1.465 0.766,1.555 0.87,1.621 0.975,1.68 1.08,1.731 L 4.788,-16.474 C 4.929,-17.162 4.402,-17.805 3.7,-17.805 h -6.313 c -0.605,0 -1.056,0.556 -0.93,1.148 z M 10.013,11.573 C 9.899,12.08 9.449,12.441 8.93,12.441 H 1.89 c -6.907,0 -11.287,-3.239 -13.035,-9.683 l -8.385,-38.251 c -0.153,-0.693 0.375,-1.348 1.084,-1.348 h 9.733 c 0.528,0 0.984,0.372 1.088,0.89 l 1.275,6.325 c 0.105,0.518 0.56,0.891 1.088,0.891 H 6.446 c 0.499,0 0.937,-0.333 1.071,-0.814 l 1.796,-6.479 c 0.133,-0.48 0.572,-0.813 1.07,-0.813 h 9.051 c 0.71,0 1.238,0.658 1.083,1.352 z"
             style="fill:#373737;fill-opacity:1;fill-rule:nonzero;stroke:none"
             id="path396"
             inkscape:connector-curvature="0" /></g><g
           id="g398"
           transform="translate(429.8711,88.5059)"><path
             d="M 0,0 C 0,0.008 0,0.017 0.003,0.027 H 18.308 V 4.401 H 0.029 C -0.522,4.401 -1.065,4.353 -1.593,4.257 -2.338,4.113 -2.99,3.693 -3.506,3.135 -3.815,2.827 -4.08,2.418 -4.287,1.975 -4.535,1.432 -4.627,0.839 -4.627,0.211 V -27.735 H 0 v 1.168 12.964 h 13.371 v 4.381 L 0,-9.222 Z"
             style="fill:#373737;fill-opacity:1;fill-rule:nonzero;stroke:none"
             id="path400"
             inkscape:connector-curvature="0" /></g><g
           id="g402"
           transform="translate(463.584,65.106)"><path
             d="M 0,0 C -0.04,0 -0.078,-0.005 -0.11,-0.005 H -9.223 C -9.557,0 -9.802,0.06 -10.015,0.16 c -0.254,0.121 -0.406,0.251 -0.512,0.381 -0.251,0.31 -0.422,0.686 -0.497,1.234 -0.094,0.679 -0.141,1.328 -0.141,1.955 0,0.742 0.047,1.373 0.134,1.868 0.077,0.441 0.208,0.727 0.347,0.91 0.035,0.05 0.221,0.239 0.565,0.443 0.173,0.109 0.477,0.209 0.982,0.209 L 0,7.16 Z m 2.879,18.605 c -0.596,0.637 -1.332,1.114 -2.177,1.447 -0.844,0.339 -1.735,0.511 -2.643,0.507 h -12.235 v -1.163 -3.17 h 12.109 c 0.396,0 0.687,-0.066 0.919,-0.178 0.289,-0.142 0.457,-0.281 0.551,-0.402 0.164,-0.201 0.314,-0.477 0.422,-0.891 C -0.052,14.283 0,13.913 0,13.691 v -2.2 h -8.626 c -0.737,0 -1.518,-0.077 -2.342,-0.233 -0.956,-0.171 -1.85,-0.592 -2.609,-1.216 -1.004,-0.828 -1.694,-1.916 -1.955,-3.148 -0.232,-1.053 -0.346,-2.082 -0.346,-3.078 0,-0.373 0.012,-0.823 0.044,-1.365 0.032,-0.608 0.132,-1.222 0.287,-1.843 0.164,-0.627 0.386,-1.243 0.672,-1.861 0.327,-0.721 0.827,-1.344 1.454,-1.82 0.759,-0.591 1.641,-0.974 2.571,-1.097 0.77,-0.109 1.511,-0.165 2.224,-0.165 h 8.689 c 0.449,0 0.931,0.036 1.453,0.096 0.691,0.074 1.366,0.37 1.883,0.848 0.538,0.49 0.918,1.154 1.028,1.873 0.074,0.494 0.117,0.928 0.117,1.329 v 13.496 c 0,0.772 -0.088,1.601 -0.252,2.492 -0.192,1.046 -0.684,2.009 -1.413,2.806"
             style="fill:#373737;fill-opacity:1;fill-rule:nonzero;stroke:none"
             id="path404"
             inkscape:connector-curvature="0" /></g><g
           id="g406"
           transform="translate(508.7266,75.6211)"><path
             d="m 0,0 h -12.304 c 0.038,0.587 0.088,1.132 0.152,1.617 0.097,0.694 0.321,1.319 0.689,1.926 0.341,0.561 0.693,0.958 1.036,1.217 0.381,0.287 0.773,0.498 1.191,0.626 0.466,0.139 0.943,0.231 1.422,0.269 0.538,0.038 1.077,0.056 1.618,0.056 0.489,0 0.976,-0.012 1.469,-0.037 0.435,-0.024 0.869,-0.094 1.314,-0.203 0.414,-0.1 0.808,-0.259 1.194,-0.466 0.313,-0.173 0.634,-0.44 0.954,-0.828 0.309,-0.35 0.614,-0.848 0.888,-1.515 C -0.143,2.098 0,1.322 0,0.321 Z M 3.018,6.27 C 2.57,6.905 2.109,7.43 1.589,7.837 1.174,8.165 0.843,8.41 0.549,8.596 c -1.056,0.629 -2.198,1.03 -3.405,1.208 -1.106,0.157 -2.086,0.239 -2.956,0.239 -1.222,0 -2.497,-0.126 -3.834,-0.38 -1.472,-0.273 -2.819,-0.916 -3.978,-1.888 -0.814,-0.684 -1.477,-1.47 -1.963,-2.36 -0.46,-0.84 -0.8,-1.722 -1.024,-2.645 -0.217,-0.895 -0.35,-1.805 -0.395,-2.731 -0.043,-0.869 -0.062,-1.709 -0.062,-2.527 0,-1.714 0.085,-3.3 0.262,-4.759 0.19,-1.603 0.805,-3.093 1.813,-4.383 0.473,-0.637 1.027,-1.191 1.643,-1.638 0.584,-0.416 1.191,-0.756 1.821,-0.995 0.602,-0.228 1.205,-0.383 1.809,-0.469 0.557,-0.079 1.095,-0.119 1.606,-0.119 H 4.121 v 1.168 3.162 H -8.114 c -0.612,0.006 -1.099,0.101 -1.498,0.275 -0.468,0.194 -0.843,0.437 -1.148,0.708 -0.325,0.295 -0.585,0.608 -0.796,0.972 -0.22,0.389 -0.364,0.749 -0.447,1.084 -0.149,0.518 -0.258,1.192 -0.314,2.049 -0.021,0.393 -0.037,0.759 -0.047,1.099 H 0.232 c 0.399,0 0.834,0.043 1.345,0.122 0.677,0.096 1.323,0.403 1.825,0.864 0.325,0.284 0.609,0.652 0.8,1.069 0.165,0.345 0.289,0.698 0.361,1.065 0.071,0.323 0.116,0.641 0.129,0.964 0.013,0.268 0.027,0.496 0.027,0.701 0,1.287 -0.159,2.43 -0.514,3.434 C 3.878,4.798 3.489,5.593 3.018,6.27"
             style="fill:#373737;fill-opacity:1;fill-rule:nonzero;stroke:none"
             id="path408"
             inkscape:connector-curvature="0" /></g><g
           id="g410"
           transform="translate(558.1025,70.0024)"><path
             d="m 0,0 c -0.269,0.953 -0.899,1.756 -1.733,2.425 -0.786,0.649 -1.764,1.129 -2.879,1.442 -1.019,0.295 -2.215,0.598 -3.593,0.915 l -4.136,0.948 h -0.049 c -0.104,0.019 -0.349,0.076 -0.673,0.162 -0.338,0.093 -0.693,0.205 -1.06,0.326 -0.335,0.115 -0.659,0.244 -0.966,0.39 -0.276,0.13 -0.443,0.255 -0.515,0.327 -0.274,0.277 -0.399,0.531 -0.461,0.867 -0.092,0.526 -0.131,0.947 -0.131,1.243 0,0.236 0.028,0.62 0.095,1.13 0.043,0.292 0.136,0.491 0.371,0.733 0.205,0.193 0.376,0.282 0.673,0.331 0.496,0.062 0.865,0.094 1.015,0.091 h 12.874 v 4.332 h -11.979 c -1.152,0 -2.237,-0.103 -3.247,-0.319 -1.231,-0.261 -2.295,-1.018 -3.123,-2.083 -0.945,-1.187 -1.402,-2.712 -1.397,-4.381 0,-0.728 0.101,-1.47 0.297,-2.211 0.215,-0.83 0.633,-1.61 1.217,-2.292 0.166,-0.206 0.379,-0.412 0.646,-0.647 0.331,-0.288 0.711,-0.543 1.152,-0.801 0.478,-0.272 1.033,-0.515 1.682,-0.758 0.672,-0.251 1.447,-0.479 2.337,-0.684 l 3.919,-0.895 c 0.811,-0.195 1.514,-0.365 2.093,-0.507 0.567,-0.138 1.051,-0.267 1.455,-0.387 0.377,-0.117 0.659,-0.228 0.833,-0.324 0.19,-0.098 0.314,-0.192 0.379,-0.257 0.035,-0.034 0.189,-0.224 0.349,-0.541 0.07,-0.109 0.164,-0.442 0.162,-0.976 0,-0.315 -0.04,-0.72 -0.114,-1.2 -0.063,-0.412 -0.18,-0.661 -0.23,-0.732 -0.072,-0.098 -0.222,-0.231 -0.522,-0.369 -0.242,-0.113 -0.626,-0.2 -1.161,-0.2 h -14.109 v -4.33 h 1.168 13.026 c 0.528,0 1.128,0.05 1.828,0.138 0.856,0.109 1.662,0.429 2.372,0.928 0.524,0.343 0.989,0.805 1.335,1.344 0.306,0.477 0.551,0.974 0.721,1.501 0.169,0.499 0.279,1.022 0.33,1.548 0.045,0.477 0.069,0.931 0.069,1.372 C 0.323,-1.566 0.218,-0.767 0,0"
             style="fill:#373737;fill-opacity:1;fill-rule:nonzero;stroke:none"
             id="path412"
             inkscape:connector-curvature="0" /></g><g
           id="g414"
           transform="translate(479.8281,65.2012)"><path
             d="m 0,0 c -0.543,0.063 -1.075,0.189 -1.598,0.383 -0.475,0.178 -0.931,0.443 -1.381,0.819 -0.389,0.335 -0.729,0.78 -1.01,1.39 -0.094,0.206 -0.196,0.514 -0.282,0.907 -0.091,0.415 -0.162,0.849 -0.212,1.306 -0.055,0.479 -0.097,0.947 -0.123,1.409 -0.026,0.466 -0.043,0.87 -0.043,1.208 0,0.266 0.01,0.631 0.022,1.093 0.015,0.444 0.04,0.918 0.083,1.409 0.042,0.506 0.084,1.003 0.126,1.484 0.039,0.435 0.094,0.778 0.154,0.982 0.294,1.16 0.846,2.004 1.742,2.713 0.837,0.652 2.005,1.027 3.649,1.028 h 9.041 v 4.332 H 1.38 c -1.897,0 -3.51,-0.26 -4.848,-0.868 -1.212,-0.553 -2.218,-1.2 -2.999,-1.982 -0.689,-0.687 -1.239,-1.474 -1.637,-2.337 -0.381,-0.814 -0.662,-1.665 -0.85,-2.543 -0.184,-0.858 -0.297,-1.717 -0.345,-2.59 -0.04,-0.827 -0.062,-1.634 -0.062,-2.426 0,-1.726 0.112,-3.292 0.354,-4.702 0.259,-1.538 0.929,-2.954 1.96,-4.177 0.76,-0.925 1.764,-1.693 2.959,-2.309 1.289,-0.66 2.828,-0.96 4.573,-0.96 H 10.68 v 1.168 3.162 H 1.597 C 1.137,-0.101 0.604,-0.062 0,0"
             style="fill:#373737;fill-opacity:1;fill-rule:nonzero;stroke:none"
             id="path416"
             inkscape:connector-curvature="0" /></g><g
           id="g418"
           transform="translate(533.1816,83.6646)"><path
             d="M 0,0 C -0.81,0.813 -1.788,1.388 -2.863,1.65 -3.838,1.893 -4.903,2 -6.059,2 h -8.088 c -0.445,0 -0.891,-0.051 -1.366,-0.147 -0.716,-0.146 -1.335,-0.586 -1.766,-1.148 -0.362,-0.491 -0.578,-1.033 -0.66,-1.593 -0.067,-0.425 -0.101,-0.827 -0.101,-1.21 v -20.796 h 1.164 3.383 v 20.561 h 7.562 c 0.647,0 1.218,-0.072 1.703,-0.208 0.349,-0.1 0.679,-0.31 1.049,-0.763 0.286,-0.346 0.461,-0.71 0.553,-1.158 0.108,-0.514 0.168,-1.239 0.168,-2.152 v -16.28 H 2.09 V -6.059 C 2.084,-4.395 1.889,-3.066 1.338,-1.993 0.896,-1.14 0.49,-0.492 0,0"
             style="fill:#373737;fill-opacity:1;fill-rule:nonzero;stroke:none"
             id="path420"
             inkscape:connector-curvature="0" /></g><g
           id="g422"
           transform="translate(588.459,65.9443)"><path
             d="m 0,0 c -4.408,0 -7.86,3.466 -7.86,7.94 0,4.452 3.476,7.94 7.913,7.94 4.408,0 7.86,-3.464 7.86,-7.886 V 7.94 C 7.913,3.488 4.437,0 0,0 m 0.053,18.354 c -5.755,0 -10.438,-4.672 -10.438,-10.414 V 7.889 c 0,-5.713 4.658,-10.36 10.385,-10.36 5.758,0 10.442,4.671 10.442,10.465 0,5.714 -4.661,10.36 -10.389,10.36"
             style="fill:#373737;fill-opacity:1;fill-rule:nonzero;stroke:none"
             id="path424"
             inkscape:connector-curvature="0" /></g><g
           id="g426"
           transform="translate(592.1387,72.3047)"><path
             d="m 0,0 c -0.332,0.333 -0.867,0.339 -1.21,0.017 -0.737,-0.698 -1.24,-0.934 -1.991,-0.934 -1.247,0 -2.261,1.115 -2.261,2.531 0,1.381 0.983,2.464 2.238,2.464 0.663,0 1.254,-0.286 1.917,-0.927 0.348,-0.334 0.894,-0.324 1.227,0.02 l 0.677,0.698 c 0.161,0.167 0.249,0.39 0.244,0.622 -0.005,0.233 -0.104,0.453 -0.272,0.612 -0.884,0.835 -1.954,1.61 -3.77,1.61 -2.749,0 -4.987,-2.298 -4.987,-5.122 V 1.547 c 0,-2.859 2.182,-5.099 4.964,-5.099 1.865,0 2.992,0.852 3.846,1.686 0.166,0.163 0.261,0.385 0.263,0.617 0.002,0.232 -0.09,0.454 -0.254,0.619 z"
             style="fill:#373737;fill-opacity:1;fill-rule:nonzero;stroke:none"
             id="path428"
             inkscape:connector-curvature="0" /></g><g
           id="g430"
           transform="translate(616.582,68.127)"><path
             d="m 0,0 h -6.663 l 3.152,2.857 c 2.918,2.66 4.222,4.268 4.222,6.81 0,2.959 -2.387,5.189 -5.551,5.189 -3.389,0 -5.045,-1.809 -6.33,-3.767 -0.261,-0.398 -0.152,-0.934 0.244,-1.198 l 0.878,-0.586 c 0.392,-0.262 0.926,-0.163 1.194,0.228 1.27,1.838 2.364,2.553 3.903,2.553 1.337,0 2.689,-0.861 2.689,-2.508 0,-1.175 -0.511,-2.278 -3.203,-4.738 l -5.876,-5.311 c -0.183,-0.164 -0.286,-0.398 -0.286,-0.644 v -0.878 c 0,-0.48 0.388,-0.867 0.867,-0.867 H 0 c 0.48,0 0.868,0.387 0.868,0.867 v 1.125 C 0.868,-0.388 0.48,0 0,0"
             style="fill:#373737;fill-opacity:1;fill-rule:nonzero;stroke:none"
             id="path432"
             inkscape:connector-curvature="0" /></g><g
           id="g434"
           transform="translate(632.7842,67.79)"><path
             d="m 0,0 c -2.796,0 -4.467,3.162 -4.467,6.267 0,2.995 1.551,6.178 4.423,6.178 2.795,0 4.466,-3.165 4.466,-6.224 V 6.177 C 4.422,3.183 2.873,0 0,0 m 0,15.238 c -4.229,0 -7.418,-3.876 -7.418,-9.017 V 6.177 c 0,-5.198 3.102,-8.97 7.374,-8.97 4.229,0 7.417,3.876 7.417,9.06 0,5.198 -3.1,8.971 -7.373,8.971"
             style="fill:#373737;fill-opacity:1;fill-rule:nonzero;stroke:none"
             id="path436"
             inkscape:connector-curvature="0" /></g><g
           id="g438"
           transform="translate(658.4258,68.127)"><path
             d="m 0,0 h -6.664 l 3.152,2.857 c 2.918,2.66 4.222,4.268 4.222,6.81 0,2.959 -2.387,5.189 -5.551,5.189 -3.389,0 -5.045,-1.809 -6.33,-3.767 -0.261,-0.398 -0.152,-0.934 0.244,-1.198 l 0.878,-0.586 c 0.392,-0.262 0.926,-0.163 1.195,0.228 1.27,1.838 2.363,2.553 3.902,2.553 1.337,0 2.689,-0.861 2.689,-2.508 0,-1.175 -0.511,-2.278 -3.203,-4.738 l -5.876,-5.311 c -0.182,-0.164 -0.286,-0.398 -0.286,-0.644 v -0.878 c 0,-0.48 0.388,-0.867 0.867,-0.867 L 0,-2.86 c 0.479,0 0.867,0.387 0.867,0.867 v 1.125 C 0.867,-0.388 0.479,0 0,0"
             style="fill:#373737;fill-opacity:1;fill-rule:nonzero;stroke:none"
             id="path440"
             inkscape:connector-curvature="0" /></g><g
           id="g442"
           transform="translate(674.6279,67.79)"><path
             d="m 0,0 c -2.797,0 -4.468,3.162 -4.468,6.267 0,2.995 1.551,6.178 4.424,6.178 2.794,0 4.466,-3.165 4.466,-6.224 V 6.177 C 4.422,3.183 2.872,0 0,0 m 0,15.238 c -4.229,0 -7.418,-3.876 -7.418,-9.017 V 6.177 c 0,-5.198 3.102,-8.97 7.374,-8.97 4.229,0 7.416,3.876 7.416,9.06 0,5.198 -3.1,8.971 -7.372,8.971"
             style="fill:#373737;fill-opacity:1;fill-rule:nonzero;stroke:none"
             id="path444"
             inkscape:connector-curvature="0" /></g><g
           id="g446"
           transform="translate(226.5205,110.0127)"><path
             d="M 0,0 -1.012,0.051 H -6.504 C -0.193,-1.505 3.897,-6.937 3.897,-20.217 v -29.401 h 7.96 c 3.511,0 6.991,-1.692 8.362,-4.83 v 34.231 C 20.219,-9.071 11.147,0 0,0"
             style="fill:#373737;fill-opacity:1;fill-rule:nonzero;stroke:none"
             id="path448"
             inkscape:connector-curvature="0" /></g><g
           id="g450"
           transform="translate(224.1865,93.6919)"><path
             d="M 0,0 C 1.82,0 3.347,-1.253 3.774,-2.94 H 3.886 C 3.63,12.552 -2.128,16.498 -12.056,16.372 h -4.167 c 3.144,-1.25 5.313,-4.639 5.313,-8.209 V 0 Z"
             style="fill:#373737;fill-opacity:1;fill-rule:nonzero;stroke:none"
             id="path452"
             inkscape:connector-curvature="0" /></g><g
           id="g454"
           transform="translate(215.9746,42.2046)"><path
             d="M 0,0 H 5.083 C -1.553,1.536 -4.782,7.615 -4.782,20.257 V 59.65 c 0,4.465 -3.589,8.147 -8.039,8.153 -0.041,0.001 -0.081,0.006 -0.122,0.006 -1.411,0 -2.74,-0.358 -3.897,-0.989 -2.593,-1.386 -4.264,-4.092 -4.264,-7.17 V 20.257 c 0,-11.148 9.073,-20.218 20.22,-20.218 z"
             style="fill:#373737;fill-opacity:1;fill-rule:nonzero;stroke:none"
             id="path456"
             inkscape:connector-curvature="0" /></g><g
           id="g458"
           transform="translate(223.3389,47.6338)"><path
             d="m 0,0 c -1.854,0 -3.362,1.507 -3.362,3.362 0,1.856 1.508,3.366 3.362,3.366 1.856,0 3.367,-1.51 3.367,-3.366 C 3.367,1.507 1.856,0 0,0 M 15.039,10.93 H -6.417 c -1.878,0 -3.485,1.332 -3.831,3.099 h -0.075 C -10.449,-1.819 -2.909,-5.391 5.81,-5.391 h 9.229 c 0.03,0 0.06,0.005 0.09,0.005 4.464,0.049 8.07,3.68 8.07,8.156 0,4.507 -3.654,8.16 -8.16,8.16"
             style="fill:#373737;fill-opacity:1;fill-rule:nonzero;stroke:none"
             id="path460"
             inkscape:connector-curvature="0" /></g></g></g></g></svg>