<svg xmlns="http://www.w3.org/2000/svg" viewBox="0 0 938.67 206.67">
  <defs>
    <clipPath id="a" clipPathUnits="userSpaceOnUse">
      <path d="M0 155h704V0H0z"/>
    </clipPath>
  </defs>
  <g clip-path="url(#a)" transform="matrix(1.33333 0 0 -1.33333 0 206.67)">
    <path fill="#373737" d="M39.1 76.5c.73 0 1.3.23 1.73.69.42.45.63 1.05.63 1.78 0 .76-.21 1.37-.64 1.85-.44.47-1.02.71-1.74.71h-2.26V76.5zM33 84.84h6.31c1.07 0 1.99-.16 2.75-.49a5 5 0 002.97-3.12 6.85 6.85 0 00-.13-4.72 5.2 5.2 0 00-3.18-2.92 6.63 6.63 0 00-2.23-.37h-2.67V66.9H33z"/>
    <path fill="#373737" d="M54.21 69.83a2.67 2.67 0 012.17 1.05c.25.32.44.68.56 1.09a4.36 4.36 0 010 2.5c-.12.4-.3.76-.56 1.07a2.66 2.66 0 01-2.17 1.04 2.74 2.74 0 01-2.18-1.04 4.06 4.06 0 010-4.67c.24-.32.55-.57.92-.76.38-.19.8-.28 1.26-.28m-6.54 3.39a7.09 7.09 0 001.82 4.76c.57.6 1.26 1.09 2.06 1.44.8.35 1.7.52 2.66.52a6.2 6.2 0 006.04-4.1c.32-.82.48-1.69.48-2.62 0-.94-.16-1.8-.48-2.63a6.35 6.35 0 00-6.04-4.13 6.46 6.46 0 00-4.72 2 7.08 7.08 0 00-1.82 4.76"/>
    <path fill="#373737" d="M62.65 79.51h3.84l2.13-8.1 2.37 8.1h2.98l2.39-8.1 2.13 8.1h3.77L78.07 66.9H74.7l-2.29 7.04-2.25-7.04h-3.33z"/>
    <path fill="#373737" d="M92.93 74.54a2.44 2.44 0 01-2.52 2.4 2.57 2.57 0 01-2.45-1.57 2.17 2.17 0 01-.18-.83zm3.27-6.27l-.63-.45c-.27-.2-.63-.4-1.07-.6a8.52 8.52 0 00-3.65-.75c-1.04 0-1.98.16-2.8.5a5.87 5.87 0 00-3.44 3.52 8.02 8.02 0 00-.03 5.3 6.01 6.01 0 005.86 4.16 5.37 5.37 0 004.48-2.03c.5-.64.89-1.4 1.15-2.3.26-.88.39-1.86.39-2.91v-.65h-8.68c.02-.68.31-1.28.88-1.79a3.32 3.32 0 012.32-.76c.97 0 1.76.14 2.36.44.6.3 1.05.55 1.32.77z"/>
    <path fill="#373737" d="M99.88 79.51h3.59l.13-1.58c.3.43.74.84 1.28 1.23.55.4 1.25.6 2.12.6.33 0 .6-.02.84-.06.23-.04.46-.1.69-.19l-.6-3.41c-.38.12-.83.18-1.35.18-.88 0-1.6-.27-2.14-.82-.54-.54-.82-1.32-.82-2.32V66.9h-3.74z"/>
    <path fill="#373737" d="M119.4 74.54a2.42 2.42 0 01-2.52 2.4 2.7 2.7 0 01-1.95-.82 2.5 2.5 0 01-.66-1.58zm3.28-6.27a13.6 13.6 0 01-.62-.45 5.7 5.7 0 00-1.08-.6 8.52 8.52 0 00-3.65-.75c-1.04 0-1.97.16-2.8.5a5.85 5.85 0 00-3.44 3.52 8 8 0 00-.03 5.3 6.01 6.01 0 005.86 4.16 5.38 5.38 0 004.48-2.03c.5-.64.9-1.4 1.15-2.3.26-.88.39-1.86.39-2.91v-.65h-8.67c.02-.68.3-1.28.87-1.79a3.33 3.33 0 012.32-.76c.97 0 1.76.14 2.36.44.61.3 1.05.55 1.33.77z"/>
    <path fill="#373737" d="M134.57 76.04c-.26.16-.54.28-.84.35-.3.07-.68.11-1.13.11-.95 0-1.7-.33-2.22-1a3.96 3.96 0 01-.8-2.55c0-.92.22-1.67.66-2.25.43-.58 1.08-.87 1.94-.87a2.22 2.22 0 012.26 1.72c.09.34.13.7.13 1.05zm.08-7.88a4.66 4.66 0 00-1.47-1.17 4.86 4.86 0 00-5.82 1.3 6.36 6.36 0 00-1.12 2.04c-.28.8-.42 1.7-.42 2.7 0 1.13.2 2.12.59 2.97a6.38 6.38 0 003.55 3.36 6.38 6.38 0 004.61-.01v5.49h3.72V66.9h-3.48z"/>
    <path fill="#373737" d="M152.07 69.96c.2-.09.44-.15.69-.2.25-.04.6-.07 1.05-.07.99 0 1.75.34 2.3 1 .54.66.82 1.53.82 2.6 0 .4-.05.79-.15 1.16-.1.38-.23.72-.42 1.01a2.06 2.06 0 01-1.84 1c-.84.01-1.45-.23-1.85-.7-.4-.48-.6-1.1-.6-1.9zm-3.74 14.88h3.74v-6.27c.35.38.82.67 1.42.89a5.23 5.23 0 004.09-.19 5 5 0 001.7-1.39c.46-.58.8-1.25 1.05-2.01a8 8 0 00.36-2.44c0-1.02-.16-1.96-.48-2.82a6.12 6.12 0 00-3.62-3.63 8.3 8.3 0 00-3.01-.51c-1.04 0-2.02.1-2.95.3-.93.19-1.7.4-2.3.61z"/>
    <path fill="#373737" d="M164.3 64.9c.2-.16.44-.3.69-.43.25-.12.52-.18.82-.18.4 0 .73.13 1 .39.26.26.52.7.76 1.33l.37 1.02-5.56 12.48h4.26l3.03-7.96 2.76 7.96h3.97l-4.99-12.53-.81-2.09c-.27-.69-.6-1.3-.99-1.85a4.03 4.03 0 00-3.54-1.84 5.14 5.14 0 00-3.27 1.05z"/>
    <path fill="#373737" d="M270.3 63.6v35.94c0 .74-.6 1.34-1.34 1.34h-8.86c-.74 0-1.34-.6-1.34-1.34l.14-46.6c0-.75.6-1.34 1.33-1.34h25.15c.75 0 1.35.6 1.34 1.36l-.13 8.39c-.02.73-.61 1.31-1.34 1.31h-14a.94.94 0 00-.95.94"/>
    <path fill="#373737" d="M295.14 99.57l.13-46.67c0-.72.59-1.3 1.3-1.3h9.08c.72 0 1.3.58 1.3 1.3l-.13 46.68c0 .72-.59 1.3-1.3 1.3h-9.08a1.3 1.3 0 01-1.3-1.3"/>
    <path fill="#373737" d="M330.08 87.96c.66.96 1.5 1.61 2.55 1.99 2.02.72 5 .7 8.73.44l4.55-.3 4.98-.4c.64-.06 1.2.44 1.23 1.09l.27 8.1c.02.57-.38 1.07-.94 1.16-1.83.32-3.68.6-5.49.83-1.6.23-3.36.42-5.24.58-1.89.16-3.66.25-5.27.25-3.4 0-6.35-.48-8.8-1.4a13.9 13.9 0 01-6.14-4.53c-1.55-2-2.7-4.62-3.41-7.77-.7-3.06-1.05-6.8-1.05-11.08 0-4 .32-7.63.94-10.78a22.6 22.6 0 013.27-8.28 15.06 15.06 0 016.22-5.3c2.53-1.18 5.66-1.78 9.3-1.78 1.3 0 2.77.03 4.38.1 1.64.07 3.25.22 4.79.46 1.46.21 2.69.8 3.65 1.74.9.87 1.64 1.98 2.17 3.27.51 1.25.88 2.67 1.1 4.23.2 1.5.36 3.12.45 4.89l.05 9.96a4.04 4.04 0 01-4.03 4.06h-9.66a3.42 3.42 0 01-3.42-3.42V72.7c0-1.99 1.62-3.6 3.6-3.6h.82c.63 0 1.15-.52 1.14-1.16l-.04-3.29c-.07-1.1-.34-1.84-.81-2.2-.3-.23-1.14-.61-3.3-.61-1.8 0-3.26.23-4.36.7a5.15 5.15 0 00-2.47 2.16 11.8 11.8 0 00-1.4 4.4 51.13 51.13 0 00-.44 7.27c0 2.96.18 5.42.53 7.32.33 1.8.85 3.24 1.55 4.26"/>
    <path fill="#373737" d="M378.58 88.44c.28 1.13.63 1.46.77 1.55.1.07.2.13.31.18l3.71-18.2a1.1 1.1 0 00-1.09-1.34h-6.31a.95.95 0 00-.93 1.15zM388.6 100c-.12.5-.57.87-1.09.87h-7.04c-6.9 0-11.28-3.24-13.03-9.68l-8.39-38.25a1.1 1.1 0 011.09-1.35h9.73c.53 0 .98.37 1.09.89l1.27 6.32c.1.52.56.9 1.1.9h11.7c.5 0 .94-.34 1.07-.82l1.8-6.48c.13-.48.57-.81 1.07-.81h9.05c.7 0 1.24.66 1.08 1.35z"/>
    <path fill="#373737" d="M429.87 88.5v.03h18.3v4.38H429.9c-.55 0-1.1-.05-1.62-.15a3.56 3.56 0 01-1.91-1.12 4.1 4.1 0 01-1.13-2.92V60.77h4.63V74.9h13.37v4.38h-13.37z"/>
    <path fill="#373737" d="M463.58 65.1H454.36c-.33 0-.58.07-.8.17-.24.12-.4.25-.5.38-.25.3-.42.68-.5 1.23a14.24 14.24 0 000 3.82c.07.44.2.73.34.91.04.05.22.24.56.45.18.1.48.2.99.2h9.13zm2.88 18.61a5.9 5.9 0 01-2.17 1.45c-.85.34-1.74.5-2.65.5h-12.23v-4.33h12.1c.4 0 .7-.06.93-.18.28-.14.45-.28.55-.4.16-.2.31-.47.42-.89.12-.47.17-.84.17-1.06v-2.2h-8.62c-.74 0-1.52-.08-2.34-.24a5.69 5.69 0 01-2.61-1.21c-1-.83-1.7-1.92-1.96-3.15a14.3 14.3 0 01-.3-4.44 9.72 9.72 0 01.96-3.7c.33-.73.83-1.35 1.45-1.83.76-.59 1.64-.97 2.57-1.1.77-.1 1.52-.16 2.23-.16h8.69c.45 0 .93.04 1.45.1a3.31 3.31 0 012.91 2.72c.08.5.12.93.12 1.33v13.5c0 .76-.09 1.6-.25 2.48-.2 1.05-.69 2.01-1.42 2.81"/>
    <path fill="#373737" d="M508.73 75.62h-12.3c.03.59.08 1.13.14 1.62a4.96 4.96 0 001.73 3.14c.38.29.77.5 1.2.63.46.14.93.23 1.41.27a22.95 22.95 0 003.09.02c.43-.03.87-.1 1.31-.2a5 5 0 001.2-.47c.31-.18.63-.44.95-.83.31-.35.62-.85.89-1.52a6.2 6.2 0 00.38-2.34zm3.01 6.27c-.44.64-.9 1.16-1.42 1.57-.42.33-.75.57-1.04.76a9.24 9.24 0 01-3.4 1.2c-1.12.16-2.1.24-2.97.24-1.22 0-2.5-.12-3.83-.38a8.58 8.58 0 01-5.94-4.24c-.46-.84-.8-1.73-1.02-2.65-.22-.9-.35-1.8-.4-2.73-.04-.87-.06-1.7-.06-2.53 0-1.71.08-3.3.26-4.76.2-1.6.8-3.09 1.81-4.38a7.66 7.66 0 013.47-2.63c.6-.23 1.2-.38 1.8-.47.56-.08 1.1-.12 1.61-.12h12.24v4.33H500.6a3.8 3.8 0 00-2.64.98 4.01 4.01 0 00-1.25 2.06c-.15.52-.25 1.2-.31 2.05l-.05 1.1h12.6c.4 0 .83.04 1.34.12a3.43 3.43 0 012.63 1.93 5.5 5.5 0 01.49 2.03l.03.7c0 1.29-.16 2.43-.52 3.44-.33.9-.71 1.7-1.19 2.38"/>
    <path fill="#373737" d="M558.1 70c-.27.96-.9 1.76-1.73 2.43a7.8 7.8 0 01-2.88 1.44c-1.02.3-2.21.6-3.6.91l-4.13.95h-.05a10.98 10.98 0 00-1.73.49c-.34.12-.66.24-.97.39-.27.13-.44.26-.51.33-.28.27-.4.53-.46.86-.1.53-.13.95-.13 1.25 0 .23.02.62.1 1.13.03.29.13.49.36.73.2.2.38.28.68.33.5.06.86.1 1.01.1h12.87v4.32h-11.97c-1.16 0-2.24-.1-3.25-.31a5.43 5.43 0 01-3.12-2.09 6.9 6.9 0 01-1.4-4.38c0-.73.1-1.47.3-2.21a5.75 5.75 0 011.86-2.94c.33-.29.71-.54 1.15-.8.48-.27 1.03-.51 1.68-.76a18.7 18.7 0 012.34-.68l3.92-.9 2.1-.5c.56-.14 1.04-.27 1.45-.4.37-.1.66-.22.83-.31.19-.1.31-.2.38-.26.03-.04.19-.23.35-.54.07-.11.16-.44.16-.98 0-.31-.04-.72-.11-1.2a1.98 1.98 0 00-.23-.73c-.08-.1-.23-.23-.53-.37-.24-.11-.62-.2-1.16-.2h-14.1v-4.33h14.19c.53 0 1.13.05 1.83.14a5.27 5.27 0 013.7 2.27 6.43 6.43 0 011.05 3.05c.05.48.07.93.07 1.37 0 .84-.1 1.64-.32 2.4"/>
    <path fill="#373737" d="M479.83 65.2c-.54.06-1.08.19-1.6.38-.47.18-.93.45-1.38.82a3.98 3.98 0 00-1.3 2.3 24.33 24.33 0 00-.38 3.92l.03 1.1c.02.44.04.91.08 1.4l.13 1.49c.04.43.1.78.15.98.3 1.16.85 2 1.75 2.71.83.66 2 1.03 3.65 1.03H490v4.33h-8.8c-1.89 0-3.5-.26-4.84-.86a10.1 10.1 0 01-3-1.99 8.06 8.06 0 01-1.64-2.33c-.38-.82-.66-1.67-.85-2.55-.18-.85-.3-1.71-.34-2.59-.04-.82-.06-1.63-.06-2.42 0-1.73.1-3.3.35-4.7a8.68 8.68 0 011.96-4.18 9.27 9.27 0 017.53-3.27h10.2v4.33h-9.08c-.46 0-1 .04-1.6.1"/>
    <path fill="#373737" d="M533.18 83.66a6.08 6.08 0 01-2.86 1.65c-.98.25-2.04.35-3.2.35h-8.09c-.44 0-.89-.05-1.36-.14a3.03 3.03 0 01-1.77-1.15 3.53 3.53 0 01-.66-1.6c-.06-.42-.1-.82-.1-1.2v-20.8h4.55v20.56h7.56c.65 0 1.22-.07 1.7-.2.35-.1.68-.32 1.05-.77.29-.35.46-.7.56-1.16.1-.51.16-1.24.16-2.15V60.77h4.55v16.84c0 1.66-.2 2.99-.75 4.06-.44.85-.85 1.5-1.34 2"/>
    <path fill="#373737" d="M588.46 65.94a7.8 7.8 0 00-7.86 7.94 7.84 7.84 0 007.91 7.94c4.41 0 7.86-3.46 7.86-7.88v-.06a7.84 7.84 0 00-7.91-7.94m.05 18.36a10.44 10.44 0 01-10.44-10.42v-.05c0-5.71 4.66-10.36 10.39-10.36 5.76 0 10.44 4.67 10.44 10.47 0 5.71-4.66 10.36-10.39 10.36"/>
    <path fill="#373737" d="M592.14 72.3a.87.87 0 01-1.21.02c-.74-.7-1.24-.93-2-.93-1.24 0-2.25 1.11-2.25 2.53 0 1.38.98 2.46 2.23 2.46.67 0 1.26-.28 1.92-.92a.87.87 0 011.23.02l.68.7a.87.87 0 01-.03 1.23 5.06 5.06 0 01-8.76-3.51v-.05c0-2.86 2.18-5.1 4.96-5.1 1.87 0 3 .85 3.85 1.69.17.16.26.38.26.62 0 .23-.09.45-.25.61z"/>
    <path fill="#373737" d="M616.58 68.13h-6.66l3.15 2.85c2.92 2.66 4.22 4.27 4.22 6.81 0 2.96-2.38 5.2-5.55 5.2-3.39 0-5.04-1.82-6.33-3.77a.87.87 0 01.25-1.2l.87-.59a.87.87 0 011.2.23c1.27 1.84 2.36 2.55 3.9 2.55 1.34 0 2.69-.86 2.69-2.5 0-1.18-.51-2.28-3.2-4.74l-5.88-5.31a.86.86 0 01-.29-.65v-.88c0-.48.4-.86.87-.86h10.76c.48 0 .87.38.87.86v1.13c0 .48-.39.87-.87.87"/>
    <path fill="#373737" d="M632.78 67.79c-2.8 0-4.46 3.16-4.46 6.27 0 3 1.55 6.17 4.42 6.17 2.8 0 4.47-3.16 4.47-6.22v-.04c0-3-1.55-6.18-4.43-6.18m0 15.24c-4.22 0-7.41-3.88-7.41-9.02v-.04c0-5.2 3.1-8.97 7.37-8.97 4.23 0 7.42 3.87 7.42 9.06 0 5.2-3.1 8.97-7.38 8.97"/>
    <path fill="#373737" d="M658.43 68.13h-6.67l3.15 2.85c2.92 2.66 4.23 4.27 4.23 6.81 0 2.96-2.4 5.2-5.56 5.2-3.38 0-5.04-1.82-6.33-3.77a.87.87 0 01.25-1.2l.88-.59a.87.87 0 011.2.23c1.26 1.84 2.35 2.55 3.9 2.55 1.33 0 2.68-.86 2.68-2.5 0-1.18-.5-2.28-3.2-4.74l-5.88-5.31a.87.87 0 01-.28-.65v-.88c0-.48.39-.86.86-.86h10.77c.47 0 .86.38.86.86v1.13c0 .48-.39.87-.86.87"/>
    <path fill="#373737" d="M674.63 67.79c-2.8 0-4.47 3.16-4.47 6.27 0 3 1.55 6.17 4.42 6.17 2.8 0 4.47-3.16 4.47-6.22v-.04c0-3-1.55-6.18-4.42-6.18m0 15.24c-4.23 0-7.42-3.88-7.42-9.02v-.04c0-5.2 3.1-8.97 7.37-8.97 4.23 0 7.42 3.87 7.42 9.06 0 5.2-3.1 8.97-7.37 8.97"/>
    <path fill="#373737" d="M226.52 110.01l-1.01.05H220c6.32-1.55 10.4-6.98 10.4-20.26V60.4h7.97c3.5 0 6.99-1.7 8.36-4.84V89.8A20.24 20.24 0 01226.52 110"/>
    <path fill="#373737" d="M224.19 93.7a3.9 3.9 0 003.77-2.95h.11c-.25 15.5-6.01 19.44-15.94 19.31h-4.17c3.15-1.25 5.32-4.64 5.32-8.2v-8.17z"/>
    <path fill="#373737" d="M215.97 42.2h5.09c-6.64 1.54-9.87 7.62-9.87 20.26v39.4a8.12 8.12 0 01-8.04 8.15h-.12a8.12 8.12 0 01-3.9-.99 8.08 8.08 0 01-4.26-7.17V62.46a20.24 20.24 0 0120.22-20.22z"/>
    <path fill="#373737" d="M223.34 47.63a3.36 3.36 0 100 6.73 3.36 3.36 0 000-6.73m15.04 10.93h-21.46a3.9 3.9 0 00-3.83 3.1h-.07c-.13-15.85 7.41-19.42 16.13-19.42h9.32a8.16 8.16 0 01-.1 16.32"/>
  </g>
</svg>
